<svg width="20" height="20" viewBox="0 0 20 20" fill="none" xmlns="http://www.w3.org/2000/svg">
<rect width="20" height="20" fill="#CDCDCD"/>
<g id="UI KIT">
<rect width="1440" height="1116" transform="translate(-373 -907)" fill="white"/>
<g id="Card">
<g id="Button" style="mix-blend-mode:multiply">
<rect x="-18" y="-12" width="87" height="44" rx="22" fill="#F2F4F7"/>
<g id="Vertical container">
<g id="Vector">
<mask id="path-2-inside-1_0_1" fill="white">
<path d="M9.69 2C8.7518 2.00021 7.84263 2.32033 7.11706 2.90595C6.39148 3.49157 5.89429 4.30654 5.71 5.21231L5.6375 5.57169C5.61823 5.65208 5.61559 5.73546 5.62974 5.81688C5.64389 5.89829 5.67454 5.97606 5.71986 6.04556C5.76519 6.11507 5.82426 6.17487 5.89355 6.22142C5.96285 6.26797 6.04095 6.30031 6.12321 6.31651C6.20547 6.3327 6.29019 6.33243 6.37234 6.31571C6.45449 6.29898 6.53238 6.26614 6.60137 6.21915C6.67035 6.17216 6.72903 6.11198 6.77389 6.04219C6.81875 5.97239 6.84889 5.89442 6.8625 5.81292L6.93625 5.45477C7.0748 4.7832 7.46155 4.18615 8.02159 3.77926C8.58162 3.37237 9.27509 3.1846 9.96769 3.25232C10.6603 3.32004 11.3027 3.63843 11.7705 4.14581C12.2384 4.6532 12.4983 5.31348 12.5 5.99877C12.5 6.73333 12.2037 7.43782 11.6763 7.95735C11.1489 8.47687 10.4335 8.7689 9.6875 8.76923H0.625C0.45924 8.76923 0.300269 8.83407 0.183058 8.94947C0.0658481 9.06488 0 9.22141 0 9.38462C0 9.54783 0.0658481 9.70435 0.183058 9.81976C0.300269 9.93517 0.45924 10 0.625 10H9.6875C10.7475 9.97443 11.7554 9.54194 12.496 8.79485C13.2367 8.04775 13.6514 7.04521 13.6517 6.0012C13.652 4.95719 13.2379 3.9544 12.4978 3.20686C11.7576 2.45931 10.75 2.02621 9.69 2ZM16.875 7.53846C16.0462 7.53846 15.2513 7.86264 14.6653 8.43967C14.0792 9.01671 13.75 9.79933 13.75 10.6154C13.75 10.7786 13.8158 10.9351 13.9331 11.0505C14.0503 11.1659 14.2092 11.2308 14.375 11.2308C14.5408 11.2308 14.6997 11.1659 14.8169 11.0505C14.9342 10.9351 15 10.7786 15 10.6154C15 10.2502 15.11 9.89332 15.316 9.58972C15.522 9.28612 15.8149 9.04949 16.1575 8.90976C16.5001 8.77003 16.8771 8.73347 17.2408 8.8047C17.6045 8.87594 17.9386 9.05177 18.2008 9.30996C18.463 9.56815 18.6416 9.8971 18.714 10.2552C18.7863 10.6133 18.7492 10.9845 18.6073 11.3219C18.4654 11.6592 18.225 11.9475 17.9167 12.1504C17.6084 12.3533 17.2458 12.4615 16.875 12.4615H0.625C0.45924 12.4615 0.300269 12.5264 0.183058 12.6418C0.0658481 12.7572 0 12.9137 0 13.0769C0 13.2401 0.0658481 13.3967 0.183058 13.5121C0.300269 13.6275 0.45924 13.6923 0.625 13.6923H12.8125C13.2269 13.6931 13.624 13.856 13.9164 14.1451C14.2089 14.4342 14.3727 14.8258 14.3719 15.2338C14.371 15.6419 14.2056 16.0329 13.912 16.3208C13.6184 16.6087 13.2207 16.77 12.8062 16.7692C12.433 16.7695 12.0716 16.6396 11.7863 16.4026C11.501 16.1656 11.3101 15.8368 11.2475 15.4745L11.2413 15.4375C11.23 15.3559 11.2023 15.2773 11.1596 15.2065C11.117 15.1356 11.0603 15.0739 10.993 15.025C10.9257 14.9761 10.849 14.941 10.7677 14.9218C10.6863 14.9025 10.6019 14.8996 10.5194 14.9131C10.4368 14.9266 10.3579 14.9563 10.2872 15.0004C10.2166 15.0445 10.1556 15.1022 10.108 15.1699C10.0604 15.2376 10.0271 15.3141 10.01 15.3947C9.99298 15.4754 9.99254 15.5586 10.0087 15.6394L10.015 15.6763C10.1261 16.326 10.4675 16.916 10.9785 17.3414C11.4895 17.7668 12.1371 18.0001 12.8062 18C13.5528 18.0003 14.2691 17.7089 14.7976 17.1896C15.3261 16.6704 15.6237 15.9659 15.625 15.2308C15.625 14.6609 15.45 14.1317 15.1513 13.6923H16.875C17.7038 13.6923 18.4987 13.3681 19.0847 12.7911C19.6708 12.2141 20 11.4314 20 10.6154C20 9.79933 19.6708 9.01671 19.0847 8.43967C18.4987 7.86264 17.7038 7.53846 16.875 7.53846Z"/>
</mask>
<path d="M9.69 2C8.7518 2.00021 7.84263 2.32033 7.11706 2.90595C6.39148 3.49157 5.89429 4.30654 5.71 5.21231L5.6375 5.57169C5.61823 5.65208 5.61559 5.73546 5.62974 5.81688C5.64389 5.89829 5.67454 5.97606 5.71986 6.04556C5.76519 6.11507 5.82426 6.17487 5.89355 6.22142C5.96285 6.26797 6.04095 6.30031 6.12321 6.31651C6.20547 6.3327 6.29019 6.33243 6.37234 6.31571C6.45449 6.29898 6.53238 6.26614 6.60137 6.21915C6.67035 6.17216 6.72903 6.11198 6.77389 6.04219C6.81875 5.97239 6.84889 5.89442 6.8625 5.81292L6.93625 5.45477C7.0748 4.7832 7.46155 4.18615 8.02159 3.77926C8.58162 3.37237 9.27509 3.1846 9.96769 3.25232C10.6603 3.32004 11.3027 3.63843 11.7705 4.14581C12.2384 4.6532 12.4983 5.31348 12.5 5.99877C12.5 6.73333 12.2037 7.43782 11.6763 7.95735C11.1489 8.47687 10.4335 8.7689 9.6875 8.76923H0.625C0.45924 8.76923 0.300269 8.83407 0.183058 8.94947C0.0658481 9.06488 0 9.22141 0 9.38462C0 9.54783 0.0658481 9.70435 0.183058 9.81976C0.300269 9.93517 0.45924 10 0.625 10H9.6875C10.7475 9.97443 11.7554 9.54194 12.496 8.79485C13.2367 8.04775 13.6514 7.04521 13.6517 6.0012C13.652 4.95719 13.2379 3.9544 12.4978 3.20686C11.7576 2.45931 10.75 2.02621 9.69 2ZM16.875 7.53846C16.0462 7.53846 15.2513 7.86264 14.6653 8.43967C14.0792 9.01671 13.75 9.79933 13.75 10.6154C13.75 10.7786 13.8158 10.9351 13.9331 11.0505C14.0503 11.1659 14.2092 11.2308 14.375 11.2308C14.5408 11.2308 14.6997 11.1659 14.8169 11.0505C14.9342 10.9351 15 10.7786 15 10.6154C15 10.2502 15.11 9.89332 15.316 9.58972C15.522 9.28612 15.8149 9.04949 16.1575 8.90976C16.5001 8.77003 16.8771 8.73347 17.2408 8.8047C17.6045 8.87594 17.9386 9.05177 18.2008 9.30996C18.463 9.56815 18.6416 9.8971 18.714 10.2552C18.7863 10.6133 18.7492 10.9845 18.6073 11.3219C18.4654 11.6592 18.225 11.9475 17.9167 12.1504C17.6084 12.3533 17.2458 12.4615 16.875 12.4615H0.625C0.45924 12.4615 0.300269 12.5264 0.183058 12.6418C0.0658481 12.7572 0 12.9137 0 13.0769C0 13.2401 0.0658481 13.3967 0.183058 13.5121C0.300269 13.6275 0.45924 13.6923 0.625 13.6923H12.8125C13.2269 13.6931 13.624 13.856 13.9164 14.1451C14.2089 14.4342 14.3727 14.8258 14.3719 15.2338C14.371 15.6419 14.2056 16.0329 13.912 16.3208C13.6184 16.6087 13.2207 16.77 12.8062 16.7692C12.433 16.7695 12.0716 16.6396 11.7863 16.4026C11.501 16.1656 11.3101 15.8368 11.2475 15.4745L11.2413 15.4375C11.23 15.3559 11.2023 15.2773 11.1596 15.2065C11.117 15.1356 11.0603 15.0739 10.993 15.025C10.9257 14.9761 10.849 14.941 10.7677 14.9218C10.6863 14.9025 10.6019 14.8996 10.5194 14.9131C10.4368 14.9266 10.3579 14.9563 10.2872 15.0004C10.2166 15.0445 10.1556 15.1022 10.108 15.1699C10.0604 15.2376 10.0271 15.3141 10.01 15.3947C9.99298 15.4754 9.99254 15.5586 10.0087 15.6394L10.015 15.6763C10.1261 16.326 10.4675 16.916 10.9785 17.3414C11.4895 17.7668 12.1371 18.0001 12.8062 18C13.5528 18.0003 14.2691 17.7089 14.7976 17.1896C15.3261 16.6704 15.6237 15.9659 15.625 15.2308C15.625 14.6609 15.45 14.1317 15.1513 13.6923H16.875C17.7038 13.6923 18.4987 13.3681 19.0847 12.7911C19.6708 12.2141 20 11.4314 20 10.6154C20 9.79933 19.6708 9.01671 19.0847 8.43967C18.4987 7.86264 17.7038 7.53846 16.875 7.53846Z" fill="#101828" stroke="#101828" stroke-width="10" mask="url(#path-2-inside-1_0_1)"/>
</g>
</g>
</g>
</g>
</g>
</svg>
