<?xml version="1.0" encoding="UTF-8"?>
<!DOCTYPE svg PUBLIC "-//W3C//DTD SVG 1.1//EN" "http://www.w3.org/Graphics/SVG/1.1/DTD/svg11.dtd">
<svg xmlns="http://www.w3.org/2000/svg" version="1.1" width="167px" height="117px" style="shape-rendering:geometricPrecision; text-rendering:geometricPrecision; image-rendering:optimizeQuality; fill-rule:evenodd; clip-rule:evenodd" xmlns:xlink="http://www.w3.org/1999/xlink">
<g><path style="opacity:0.869" fill="#031124" d="M 60.5,-0.5 C 86.5,-0.5 112.5,-0.5 138.5,-0.5C 142.569,4.62756 146.402,9.9609 150,15.5C 150.978,18.6693 150.478,21.5027 148.5,24C 135.504,24.4999 122.504,24.6666 109.5,24.5C 109.5,25.5 109.5,26.5 109.5,27.5C 116.841,27.3337 124.174,27.5003 131.5,28C 134.937,29.1049 137.437,31.2716 139,34.5C 142.139,42.2492 145.472,49.9159 149,57.5C 152.523,59.9011 156.356,61.7344 160.5,63C 162.734,65.0627 164.734,67.2294 166.5,69.5C 166.5,80.1667 166.5,90.8333 166.5,101.5C 161.055,103.345 155.388,104.012 149.5,103.5C 148.446,109.558 145.113,113.891 139.5,116.5C 135.5,116.5 131.5,116.5 127.5,116.5C 121.932,113.927 118.599,109.594 117.5,103.5C 97.8333,103.5 78.1667,103.5 58.5,103.5C 57.4459,109.558 54.1126,113.891 48.5,116.5C 44.5,116.5 40.5,116.5 36.5,116.5C 30.9322,113.927 27.5989,109.594 26.5,103.5C 24.5,103.5 22.5,103.5 20.5,103.5C 20.5,102.5 20.5,101.5 20.5,100.5C 22.1667,100.5 23.8333,100.5 25.5,100.5C 25.5,99.5 25.5,98.5 25.5,97.5C 31.3478,84.7161 40.6812,81.5494 53.5,88C 56.3593,90.5525 58.026,93.7192 58.5,97.5C 71.8505,97.2624 85.1838,97.5957 98.5,98.5C 102.118,98.5956 105.451,97.7623 108.5,96C 107.572,95.6121 106.905,94.9454 106.5,94C 109.026,90.0816 109.026,86.2482 106.5,82.5C 107.145,81.354 107.978,80.354 109,79.5C 109.499,85.4908 109.666,91.4908 109.5,97.5C 112.167,97.5 114.833,97.5 117.5,97.5C 119.246,88.9385 124.579,84.6051 133.5,84.5C 142.421,84.6051 147.754,88.9385 149.5,97.5C 153.167,97.5 156.833,97.5 160.5,97.5C 160.5,93.8333 160.5,90.1667 160.5,86.5C 159.167,86.5 157.833,86.5 156.5,86.5C 156.5,84.5 156.5,82.5 156.5,80.5C 157.833,80.5 159.167,80.5 160.5,80.5C 161.154,76.1606 160.154,72.3273 157.5,69C 152.768,66.5339 147.768,64.8673 142.5,64C 141.5,61.6667 139.833,60 137.5,59C 139.167,58.6667 140.833,58.3333 142.5,58C 138.833,50.3333 135.167,42.6667 131.5,35C 122.181,32.7487 113.014,33.2487 104,36.5C 103.517,35.552 103.351,34.552 103.5,33.5C 104.833,33.5 106.167,33.5 107.5,33.5C 107.5,31.8333 107.5,30.1667 107.5,28.5C 106.167,28.5 104.833,28.5 103.5,28.5C 103.216,25.2234 103.549,22.0567 104.5,19C 117.513,18.8327 130.513,18.3327 143.5,17.5C 140.957,13.5794 138.29,9.74607 135.5,6C 111.5,5.33333 87.5,5.33333 63.5,6C 61.792,8.04346 59.792,9.71013 57.5,11C 40.8333,11.3333 24.1667,11.6667 7.5,12C 7,12.5 6.5,13 6,13.5C 5.50004,35.8308 5.33337,58.1642 5.5,80.5C 7.09903,80.2322 8.43236,80.5655 9.5,81.5C 7.74395,82.5521 7.07729,84.2188 7.5,86.5C 4.90391,87.2653 2.23725,87.5987 -0.5,87.5C -0.5,61.8333 -0.5,36.1667 -0.5,10.5C 1.34004,8.83203 3.34004,7.33203 5.5,6C 22.1667,5.66667 38.8333,5.33333 55.5,5C 57.3734,3.29617 59.0401,1.46283 60.5,-0.5 Z M 103.5,28.5 C 100.833,28.5 98.1667,28.5 95.5,28.5C 94.4523,26.0673 93.7856,26.0673 93.5,28.5C 91.5,28.5 89.5,28.5 87.5,28.5C 87.5,27.5 87.5,26.5 87.5,25.5C 82.8333,25.5 78.1667,25.5 73.5,25.5C 73.3573,27.2624 73.6906,28.9291 74.5,30.5C 77.0865,31.48 79.7531,31.8134 82.5,31.5C 82.5,40.5 82.5,49.5 82.5,58.5C 61.8333,58.5 41.1667,58.5 20.5,58.5C 20.5,66.1667 20.5,73.8333 20.5,81.5C 16.8333,81.5 13.1667,81.5 9.5,81.5C 8.43236,80.5655 7.09903,80.2322 5.5,80.5C 5.33337,58.1642 5.50004,35.8308 6,13.5C 6.5,13 7,12.5 7.5,12C 24.1667,11.6667 40.8333,11.3333 57.5,11C 59.792,9.71013 61.792,8.04346 63.5,6C 87.5,5.33333 111.5,5.33333 135.5,6C 138.29,9.74607 140.957,13.5794 143.5,17.5C 130.513,18.3327 117.513,18.8327 104.5,19C 103.549,22.0567 103.216,25.2234 103.5,28.5 Z M 19.5,31.5 C 30.5,31.5 41.5,31.5 52.5,31.5C 52.5,37.1667 52.5,42.8333 52.5,48.5C 41.495,48.6665 30.495,48.4998 19.5,48C 18.1888,42.5004 18.1888,37.0004 19.5,31.5 Z M 103.5,43.5 C 102.83,49.6558 104.163,50.1558 107.5,45C 106.944,44.6174 106.611,44.1174 106.5,43.5C 111.544,43.1725 116.544,43.5059 121.5,44.5C 124.03,50.1815 126.364,55.5148 128.5,60.5C 126.044,61.1529 123.71,61.4863 121.5,61.5C 121.167,60.8333 120.833,60.1667 120.5,59.5C 119.662,59.8417 119.328,60.5084 119.5,61.5C 115.116,61.8256 110.783,61.4922 106.5,60.5C 106.709,59.914 107.043,59.414 107.5,59C 106.207,58.51 104.873,58.3433 103.5,58.5C 103.5,59.5 103.5,60.5 103.5,61.5C 101.833,61.5 100.167,61.5 98.5,61.5C 98.5,55.5 98.5,49.5 98.5,43.5C 100.167,43.5 101.833,43.5 103.5,43.5 Z M 40.5,90.5 C 49.3012,91.1314 53.1345,95.798 52,104.5C 49.0812,110.025 44.5812,111.858 38.5,110C 32.5333,106.608 31.0333,101.774 34,95.5C 35.8049,93.1743 37.9716,91.5077 40.5,90.5 Z M 131.5,90.5 C 140.301,91.1314 144.134,95.798 143,104.5C 140.081,110.025 135.581,111.858 129.5,110C 123.533,106.608 122.033,101.774 125,95.5C 126.805,93.1743 128.972,91.5077 131.5,90.5 Z"/></g>
<g><path style="opacity:0.86" fill="#031124" d="M 16.5,25.5 C 29.5043,25.3334 42.5043,25.5001 55.5,26C 57.0488,27.214 58.2155,28.714 59,30.5C 59.9239,37.608 59.5906,44.608 58,51.5C 57.0975,52.7014 55.9308,53.5348 54.5,54C 41.0719,54.9623 27.7385,54.629 14.5,53C 13.8742,52.2496 13.3742,51.4162 13,50.5C 12.3333,43.5 12.3333,36.5 13,29.5C 13.6897,27.6498 14.8564,26.3164 16.5,25.5 Z M 19.5,31.5 C 18.1888,37.0004 18.1888,42.5004 19.5,48C 30.495,48.4998 41.495,48.6665 52.5,48.5C 52.5,42.8333 52.5,37.1667 52.5,31.5C 41.5,31.5 30.5,31.5 19.5,31.5 Z"/></g>
<g><path style="opacity:0.023" fill="#031124" d="M 87.5,28.5 C 85.8333,28.5 84.1667,28.5 82.5,28.5C 82.5,29.5 82.5,30.5 82.5,31.5C 79.7531,31.8134 77.0865,31.48 74.5,30.5C 73.6906,28.9291 73.3573,27.2624 73.5,25.5C 78.1667,25.5 82.8333,25.5 87.5,25.5C 87.5,26.5 87.5,27.5 87.5,28.5 Z"/></g>
<g><path style="opacity:0.005" fill="#031124" d="M 95.5,28.5 C 94.8333,28.5 94.1667,28.5 93.5,28.5C 93.7856,26.0673 94.4523,26.0673 95.5,28.5 Z"/></g>
<g><path style="opacity:0.993" fill="#000000" d="M 87.5,28.5 C 89.5,28.5 91.5,28.5 93.5,28.5C 94.1667,28.5 94.8333,28.5 95.5,28.5C 98.1667,28.5 100.833,28.5 103.5,28.5C 104.833,28.5 106.167,28.5 107.5,28.5C 107.5,30.1667 107.5,31.8333 107.5,33.5C 106.167,33.5 104.833,33.5 103.5,33.5C 101.167,33.5 98.8333,33.5 96.5,33.5C 96.1667,33.5 95.8333,33.5 95.5,33.5C 93.8333,33.5 92.1667,33.5 90.5,33.5C 90.1667,33.5 89.8333,33.5 89.5,33.5C 88.1818,36.2575 87.5152,39.4242 87.5,43C 88.304,50.1833 88.6374,57.35 88.5,64.5C 67.5,64.5 46.5,64.5 25.5,64.5C 25.5,75.5 25.5,86.5 25.5,97.5C 25.5,98.5 25.5,99.5 25.5,100.5C 23.8333,100.5 22.1667,100.5 20.5,100.5C 20.1667,99.8333 19.8333,99.1667 19.5,98.5C 20.4834,94.7016 20.8168,90.7016 20.5,86.5C 16.1667,86.5 11.8333,86.5 7.5,86.5C 7.07729,84.2188 7.74395,82.5521 9.5,81.5C 13.1667,81.5 16.8333,81.5 20.5,81.5C 20.5,73.8333 20.5,66.1667 20.5,58.5C 41.1667,58.5 61.8333,58.5 82.5,58.5C 82.5,49.5 82.5,40.5 82.5,31.5C 82.5,30.5 82.5,29.5 82.5,28.5C 84.1667,28.5 85.8333,28.5 87.5,28.5 Z"/></g>
<g><path style="opacity:0.029" fill="#031124" d="M 69.5,32.5 C 70.5,32.5 71.5,32.5 72.5,32.5C 72.6655,36.5138 72.4988,40.5138 72,44.5C 70.984,43.3659 70.3173,43.6992 70,45.5C 68.3569,41.1891 68.1903,36.8557 69.5,32.5 Z"/></g>
<g><path style="opacity:0.006" fill="#031124" d="M 89.5,33.5 C 89.8333,33.5 90.1667,33.5 90.5,33.5C 91.2178,36.2895 91.2178,39.2895 90.5,42.5C 89.5159,39.5719 89.1826,36.5719 89.5,33.5 Z"/></g>
<g><path style="opacity:0.006" fill="#031124" d="M 95.5,33.5 C 95.8333,33.5 96.1667,33.5 96.5,33.5C 96.5,35.1667 96.5,36.8333 96.5,38.5C 96.1667,38.5 95.8333,38.5 95.5,38.5C 94.9285,36.64 94.9285,34.9733 95.5,33.5 Z"/></g>
<g><path style="opacity:0.94" fill="#000000" d="M 95.5,38.5 C 95.8333,38.5 96.1667,38.5 96.5,38.5C 106.172,38.3335 115.839,38.5002 125.5,39C 129.123,46.242 132.456,53.5753 135.5,61C 135.245,62.3261 134.578,63.3261 133.5,64C 121.838,64.4999 110.171,64.6665 98.5,64.5C 98.5,72.8333 98.5,81.1667 98.5,89.5C 96.8333,89.5 95.1667,89.5 93.5,89.5C 92.8476,72.1338 93.5142,55.1338 95.5,38.5 Z M 103.5,43.5 C 102.83,49.6558 104.163,50.1558 107.5,45C 106.944,44.6174 106.611,44.1174 106.5,43.5C 111.544,43.1725 116.544,43.5059 121.5,44.5C 124.03,50.1815 126.364,55.5148 128.5,60.5C 126.044,61.1529 123.71,61.4863 121.5,61.5C 121.167,60.8333 120.833,60.1667 120.5,59.5C 119.662,59.8417 119.328,60.5084 119.5,61.5C 115.116,61.8256 110.783,61.4922 106.5,60.5C 106.709,59.914 107.043,59.414 107.5,59C 106.207,58.51 104.873,58.3433 103.5,58.5C 103.5,59.5 103.5,60.5 103.5,61.5C 101.833,61.5 100.167,61.5 98.5,61.5C 98.5,55.5 98.5,49.5 98.5,43.5C 100.167,43.5 101.833,43.5 103.5,43.5 Z"/></g>
<g><path style="opacity:0.008" fill="#031124" d="M 103.5,43.5 C 103.833,43.5 104.167,43.5 104.5,43.5C 104.833,44.8333 105.167,44.8333 105.5,43.5C 105.833,43.5 106.167,43.5 106.5,43.5C 106.611,44.1174 106.944,44.6174 107.5,45C 104.163,50.1558 102.83,49.6558 103.5,43.5 Z"/></g>
<g><path style="opacity:0.004" fill="#031124" d="M 120.5,59.5 C 120.833,60.1667 121.167,60.8333 121.5,61.5C 120.833,61.5 120.167,61.5 119.5,61.5C 119.328,60.5084 119.662,59.8417 120.5,59.5 Z"/></g>
<g><path style="opacity:0.04" fill="#031124" d="M 66.5,67.5 C 69.8615,71.9055 70.0281,76.5721 67,81.5C 66.5008,76.8452 66.3342,72.1785 66.5,67.5 Z"/></g>
<g><path style="opacity:1" fill="#000206" d="M 103.5,69.5 C 105.924,69.1924 108.257,69.5258 110.5,70.5C 109.333,70.8333 108.167,71.1667 107,71.5C 105.319,71.3917 104.152,70.7251 103.5,69.5 Z"/></g>
<g><path style="opacity:0.024" fill="#031124" d="M 73.5,84.5 C 77.3112,83.3547 81.3112,83.1881 85.5,84C 84.0091,86.0217 84.3424,87.6883 86.5,89C 84.5,89.6667 82.5,89.6667 80.5,89C 82.6574,87.9153 82.8241,86.7487 81,85.5C 78.8777,86.2199 78.3777,87.3866 79.5,89C 78.5,89.6667 77.5,89.6667 76.5,89C 77.5187,86.4723 76.5187,84.9723 73.5,84.5 Z"/></g>
<g><path style="opacity:0.041" fill="#031124" d="M 66.5,86.5 C 69.1794,87.2261 71.846,88.0594 74.5,89C 72.1667,89.6667 69.8333,89.6667 67.5,89C 66.7476,88.3292 66.4142,87.4959 66.5,86.5 Z"/></g>
<g><path style="opacity:0.024" fill="#031124" d="M -0.5,92.5 C 1.82733,92.2471 3.82733,92.9137 5.5,94.5C 4.97473,95.1924 4.30806,95.6924 3.5,96C 3.83333,96.3333 4.16667,96.6667 4.5,97C 3.16667,97.3333 1.83333,97.6667 0.5,98C 2.02187,100.305 4.02187,101.805 6.5,102.5C 4.02979,103.878 1.69646,103.545 -0.5,101.5C -0.5,98.5 -0.5,95.5 -0.5,92.5 Z"/></g>
<g><path style="opacity:0.028" fill="#031124" d="M 19.5,98.5 C 18.1851,99.4756 16.8518,100.476 15.5,101.5C 14.1552,100.653 13.1552,99.4866 12.5,98C 15.0385,97.2042 17.3718,97.3709 19.5,98.5 Z"/></g>
<g><path style="opacity:0.004" fill="#031124" d="M 5.5,98.5 C 6.83333,99.1667 6.83333,99.1667 5.5,98.5 Z"/></g>
<g><path style="opacity:0.021" fill="#031124" d="M 6.5,102.5 C 7.54212,100.209 9.04212,99.2086 11,99.5C 12.7264,103.628 11.2264,104.628 6.5,102.5 Z"/></g>
</svg>
