<!-- Generated by IcoMoon.io -->
<svg version="1.1" xmlns="http://www.w3.org/2000/svg" width="1024" height="1024" viewBox="0 0 1024 1024">
<g id="icomoon-ignore">
</g>
<path fill="none" stroke-linejoin="round" stroke-linecap="round" stroke-miterlimit="4" stroke-width="98.1333" stroke="#000" d="M889.178 196.693c-21.79-21.802-47.667-39.098-76.143-50.897-28.48-11.8-59.004-17.873-89.83-17.873s-61.35 6.074-89.826 17.873c-28.48 11.8-54.353 29.095-76.147 50.897l-45.227 45.227-45.227-45.227c-44.018-44.019-103.721-68.748-165.972-68.748s-121.955 24.73-165.973 68.748c-44.019 44.019-68.748 103.721-68.748 165.973s24.73 121.955 68.748 165.974l377.172 377.173 377.173-377.173c21.803-21.794 39.1-47.667 50.897-76.147 11.802-28.476 17.873-59 17.873-89.827s-6.071-61.35-17.873-89.828c-11.797-28.478-29.094-54.353-50.897-76.145z"></path>
</svg>
