<svg width="40" height="27.999999999999996" xmlns="http://www.w3.org/2000/svg" fill="none">
 <g>
  <title>Layer 1</title>
  <g id="Button">
   <path fill="#101828" d="m2.28197,1.57469l10.85803,0c0.0918,0 0.178,-0.03494 0.2431,-0.09842l1.0431,-1.01764c0.3032,-0.29575 0.7062,-0.45863 1.135,-0.45863l16.4645,0c0.7667,0 1.4785,0.37153 1.9042,0.99402l1.9733,2.8876c0.2799,0.40991 0.3056,0.93399 0.0675,1.3685c-0.238,0.43452 -0.7001,0.70419 -1.205,0.70419l-8.4858,0l0,0.83655l4.3461,0c1.1521,0 2.1886,0.66777 2.6406,1.70165l2.5447,5.81849l2.2291,0.87c1.1904,0.4646 1.9596,1.5727 1.9596,2.8236l0,5.3884c0,0.8036 -0.6704,1.4576 -1.4941,1.4576l-2.5937,0c-0.3016,1.7838 -1.8935,3.1494 -3.8063,3.1494c-1.9127,0 -3.5046,-1.3656 -3.8063,-3.1494l-14.178,0c-0.3017,1.7838 -1.8936,3.1494 -3.8063,3.1494c-1.91278,0 -3.50471,-1.3656 -3.80635,-3.1494l-5.18083,0c-0.73241,0 -1.32812,-0.5811 -1.32812,-1.2957l0,-19.75399c0,-1.22776 1.02345,-2.22622 2.28197,-2.22622zm29.82393,25.19511c1.4326,0 2.5978,-1.1368 2.5978,-2.5343c0,-1.3975 -1.1652,-2.5343 -2.5978,-2.5343c-1.4325,0 -2.5977,1.1368 -2.5977,2.5343c0,1.3975 1.1652,2.5343 2.5977,2.5343zm-5.826,-3.1494l2.0187,0c0.0051,-0.031 0.0116,-0.061 0.0177,-0.0915c0.004,-0.0207 0.0075,-0.0414 0.0121,-0.062c0.0101,-0.0483 0.0217,-0.096 0.0338,-0.1437c0.0025,-0.0099 0.0045,-0.0197 0.0075,-0.0296c0.0152,-0.0575 0.0318,-0.1141 0.0495,-0.1702c0.005,-0.0163 0.0111,-0.0325 0.0166,-0.0492c0.0131,-0.0394 0.0267,-0.0788 0.0409,-0.1176c0.008,-0.0207 0.0161,-0.0414 0.0247,-0.062c0.0131,-0.034 0.0262,-0.068 0.0408,-0.1014c0.0091,-0.0222 0.0192,-0.0438 0.0293,-0.0655c0.0141,-0.032 0.0282,-0.063 0.0434,-0.0944c0.0111,-0.0222 0.0217,-0.0438 0.0333,-0.066c0.0151,-0.03 0.0312,-0.0605 0.0474,-0.09c0.0116,-0.0217 0.0237,-0.0433 0.0358,-0.065c0.0166,-0.0295 0.0343,-0.059 0.052,-0.0881c0.0126,-0.0207 0.0252,-0.0413 0.0378,-0.062c0.0192,-0.0295 0.0383,-0.0585 0.058,-0.0881c0.0131,-0.0192 0.0257,-0.0384 0.0388,-0.0571c0.0217,-0.031 0.0444,-0.0615 0.0676,-0.092c0.0116,-0.0162 0.0232,-0.0325 0.0353,-0.0482c0.0313,-0.0404 0.0631,-0.0792 0.0954,-0.1181c0.0045,-0.0059 0.009,-0.0118 0.0141,-0.0177c0.0373,-0.0443 0.0762,-0.0876 0.1155,-0.1299c0.0121,-0.0133 0.0247,-0.0256 0.0373,-0.0384c0.0278,-0.029 0.0555,-0.0581 0.0843,-0.0866c0.0161,-0.0158 0.0328,-0.031 0.0489,-0.0463c0.0257,-0.0246 0.0519,-0.0492 0.0787,-0.0733c0.0176,-0.0157 0.0358,-0.0315 0.054,-0.0472c0.0262,-0.0227 0.0524,-0.0448 0.0791,-0.067l0.0576,-0.0457c0.0267,-0.0212 0.0539,-0.0419 0.0812,-0.0625c0.0196,-0.0148 0.0398,-0.0295 0.06,-0.0438c0.0277,-0.0202 0.056,-0.0394 0.0847,-0.0591c0.0202,-0.0133 0.0404,-0.027 0.0606,-0.0403c0.0297,-0.0197 0.0605,-0.0384 0.0908,-0.0571c0.0196,-0.0118 0.0393,-0.0241 0.0595,-0.0359c0.0333,-0.0197 0.0676,-0.0384 0.1019,-0.0571c0.0176,-0.0098 0.0348,-0.0197 0.0519,-0.029c0.0489,-0.0256 0.0979,-0.0502 0.1473,-0.0739c0.004,-0.0014 0.0076,-0.0034 0.0116,-0.0054c0.0535,-0.0251 0.108,-0.0492 0.1624,-0.0718c0.0177,-0.0074 0.0358,-0.0138 0.0535,-0.0212c0.0373,-0.0147 0.0752,-0.0295 0.1135,-0.0438c0.0217,-0.0078 0.0439,-0.0147 0.0656,-0.0226c0.0348,-0.0118 0.0696,-0.0236 0.1049,-0.0345c0.0237,-0.0073 0.0474,-0.0142 0.0716,-0.0211c0.0343,-0.0099 0.0686,-0.0197 0.1029,-0.0286c0.0247,-0.0064 0.0494,-0.0127 0.0747,-0.0187c0.0343,-0.0083 0.0686,-0.0157 0.1034,-0.0231c0.0252,-0.0054 0.0504,-0.0108 0.0761,-0.0157c0.0353,-0.0064 0.0707,-0.0128 0.1065,-0.0182c0.0252,-0.0045 0.0499,-0.0084 0.0756,-0.0118c0.0368,-0.0055 0.0742,-0.0099 0.112,-0.0143c0.0237,-0.0025 0.0479,-0.0059 0.0721,-0.0079c0.0414,-0.0039 0.0833,-0.0069 0.1251,-0.0093c0.0207,-0.0015 0.0409,-0.0035 0.0616,-0.004c0.063,-0.0034 0.1256,-0.0049 0.1891,-0.0049c0.0636,0 0.1261,0.0015 0.1892,0.0049c0.0207,0.0005 0.0408,0.0025 0.0615,0.004c0.0419,0.0024 0.0838,0.0054 0.1251,0.0093c0.0242,0.002 0.0484,0.0054 0.0721,0.0079c0.0379,0.0044 0.0752,0.0088 0.112,0.0143c0.0258,0.0034 0.0505,0.0073 0.0757,0.0118c0.0358,0.0054 0.0711,0.0118 0.1064,0.0182c0.0257,0.0049 0.051,0.0103 0.0762,0.0157c0.0348,0.0074 0.0691,0.0148 0.1034,0.0231c0.0252,0.006 0.0499,0.0123 0.0746,0.0187c0.0343,0.0089 0.0686,0.0187 0.1029,0.0286c0.0243,0.0069 0.048,0.0138 0.0717,0.0211c0.0353,0.0109 0.0701,0.0227 0.1049,0.0345c0.0217,0.0079 0.0439,0.0148 0.0656,0.0226c0.0383,0.0143 0.0761,0.0291 0.1135,0.0438c0.0176,0.0074 0.0358,0.0138 0.0534,0.0212c0.0545,0.0226 0.109,0.0467 0.1624,0.0718c0.0041,0.002 0.0076,0.004 0.0116,0.0054c0.0495,0.0237 0.0984,0.0483 0.1473,0.0739c0.0172,0.0093 0.0343,0.0192 0.052,0.029c0.0343,0.0187 0.0686,0.0374 0.1019,0.0571c0.0202,0.0118 0.0398,0.0241 0.0595,0.0359c0.0303,0.0187 0.061,0.0374 0.0908,0.0571c0.0202,0.0133 0.0403,0.027 0.0605,0.0403c0.0288,0.0197 0.057,0.0389 0.0848,0.0591c0.0201,0.0143 0.0403,0.029 0.06,0.0438c0.0272,0.0206 0.0545,0.0413 0.0812,0.0625l0.0575,0.0457c0.0267,0.0222 0.053,0.0443 0.0792,0.067c0.0182,0.0157 0.0363,0.0315 0.054,0.0472c0.0267,0.0241 0.0529,0.0487 0.0787,0.0733c0.0161,0.0153 0.0327,0.0305 0.0489,0.0463c0.0287,0.0285 0.0565,0.0576 0.0842,0.0866c0.0126,0.0128 0.0252,0.0251 0.0374,0.0384c0.0393,0.0423 0.0781,0.0856 0.1155,0.1299c0.005,0.0059 0.0095,0.0118 0.0141,0.0177c0.0323,0.0389 0.064,0.0777 0.0953,0.1181c0.0121,0.0157 0.0237,0.032 0.0353,0.0482c0.0232,0.0305 0.0459,0.061 0.0676,0.092c0.0131,0.0187 0.0257,0.0379 0.0389,0.0571c0.0196,0.0296 0.0388,0.0586 0.058,0.0881c0.0126,0.0207 0.0252,0.0413 0.0378,0.062c0.0177,0.0291 0.0353,0.0586 0.052,0.0881c0.0121,0.0217 0.0242,0.0433 0.0358,0.065c0.0161,0.0295 0.0323,0.06 0.0474,0.09c0.0116,0.0222 0.0222,0.0438 0.0333,0.066c0.0151,0.0314 0.0292,0.0624 0.0434,0.0944c0.01,0.0217 0.0201,0.0433 0.0292,0.0655c0.0146,0.0334 0.0278,0.0674 0.0409,0.1014c0.0085,0.0206 0.0166,0.0413 0.0247,0.062c0.0141,0.0388 0.0277,0.0782 0.0408,0.1176c0.0056,0.0167 0.0116,0.0329 0.0167,0.0492c0.0176,0.0561 0.0343,0.1127 0.0494,0.1702c0.003,0.0099 0.0051,0.0197 0.0076,0.0296c0.0121,0.0477 0.0237,0.0954 0.0338,0.1437c0.0045,0.0206 0.0081,0.0413 0.0121,0.062c0.006,0.0305 0.0126,0.0605 0.0176,0.0915l2.5927,0c0.1287,0 0.2331,-0.1019 0.2331,-0.2274l0,-2.5775l-0.9836,0l0,-1.2303l0.9836,0l0,-1.5806c0,-0.745 -0.458,-1.4049 -1.1667,-1.6814l-2.3597,-0.9207l-8.9327,0l0,8.2179zm0,-9.4482l8.0999,0l-2.2729,-5.19694c-0.2537,-0.57969 -0.8348,-0.95417 -1.4809,-0.95417l-4.3461,0l0,6.15111zm-15.9646,12.5976c1.4325,0 2.5977,-1.1368 2.5977,-2.5343c0,-1.3975 -1.1652,-2.5343 -2.5977,-2.5343c-0.0449,0 -0.0893,0.001 -0.1337,0.0035c-1.19345,0.059 -2.17706,0.9084 -2.41111,2.0205c-0.00857,0.0413 -0.01664,0.0832 -0.0232,0.125c-0.01311,0.0836 -0.02169,0.1688 -0.02623,0.2549c-0.00252,0.0433 -0.00353,0.0866 -0.00353,0.1304c0,1.3975 1.16519,2.5343 2.59777,2.5343zm-9.05427,-7.1846l0.98361,0l0,1.2303l-0.98361,0l0,2.7394c0,0.036 0.03027,0.0655 0.06709,0.0655l5.17983,0c0.00504,-0.0305 0.0116,-0.0605 0.01765,-0.0906c0.00403,-0.0211 0.00756,-0.0423 0.0121,-0.0634c0.01009,-0.0473 0.02119,-0.094 0.0333,-0.1403c0.00302,-0.0108 0.00504,-0.0221 0.00807,-0.033c0.01513,-0.057 0.03177,-0.1131 0.04943,-0.1692c0.00554,-0.0173 0.0116,-0.0345 0.01715,-0.0512c0.01311,-0.0389 0.02623,-0.0778 0.04035,-0.1157c0.00807,-0.0216 0.01665,-0.0423 0.02472,-0.0634c0.01311,-0.0335 0.02673,-0.067 0.04035,-0.0999c0.00959,-0.0227 0.01967,-0.0448 0.02976,-0.0669c0.01413,-0.0311 0.02825,-0.0621 0.04338,-0.0931c0.01059,-0.0226 0.0222,-0.0447 0.03329,-0.0669c0.01513,-0.03 0.03077,-0.0595 0.04692,-0.0895c0.0121,-0.0217 0.0242,-0.0433 0.03631,-0.065c0.01715,-0.0295 0.0343,-0.0586 0.05196,-0.0876c0.0126,-0.0211 0.02522,-0.0418 0.03833,-0.0625c0.01867,-0.0295 0.03784,-0.0585 0.05751,-0.0871c0.01261,-0.0197 0.02572,-0.0394 0.03884,-0.0581c0.02169,-0.031 0.04438,-0.061 0.06658,-0.091c0.0121,-0.0167 0.02421,-0.0335 0.03682,-0.0497c0.03026,-0.0389 0.06104,-0.0772 0.09281,-0.1151c0.00555,-0.0069 0.0106,-0.0138 0.01614,-0.0202c0.03784,-0.0443 0.07617,-0.0876 0.11551,-0.1299c0.01261,-0.0133 0.02522,-0.0261 0.03783,-0.0394c0.02775,-0.029 0.05549,-0.0576 0.08374,-0.0856c0.01614,-0.0158 0.03278,-0.031 0.04943,-0.0468c0.02572,-0.0246 0.05145,-0.0487 0.07818,-0.0728c0.01766,-0.0157 0.03632,-0.0315 0.05448,-0.0477c0.02572,-0.0222 0.05195,-0.0443 0.07869,-0.066c0.01917,-0.0157 0.03834,-0.0315 0.05801,-0.0467c0.02623,-0.0207 0.05346,-0.0414 0.0807,-0.062c0.01967,-0.0148 0.03985,-0.0295 0.06003,-0.0438c0.02774,-0.0202 0.05599,-0.0394 0.08423,-0.0586c0.02069,-0.0138 0.04086,-0.0275 0.06104,-0.0408c0.02976,-0.0197 0.06002,-0.0384 0.09029,-0.0566c0.02018,-0.0123 0.03985,-0.0246 0.06002,-0.0364c0.03329,-0.0197 0.06709,-0.0384 0.10139,-0.0571c0.01766,-0.0098 0.03481,-0.0197 0.05296,-0.029c0.04792,-0.0256 0.09635,-0.0497 0.14578,-0.0729c0.00404,-0.0019 0.00807,-0.0044 0.01261,-0.0064c0.05347,-0.0251 0.10794,-0.0492 0.16242,-0.0718c0.01765,-0.0074 0.03581,-0.0138 0.05347,-0.0212c0.03783,-0.0147 0.07516,-0.0295 0.11349,-0.0438c0.02169,-0.0078 0.04388,-0.0147 0.06608,-0.0226c0.0343,-0.0118 0.06911,-0.0236 0.10441,-0.0345c0.02371,-0.0073 0.04792,-0.0142 0.07163,-0.0211c0.0343,-0.0099 0.0686,-0.0197 0.1029,-0.0286c0.02472,-0.0064 0.04943,-0.0127 0.07465,-0.0187c0.0343,-0.0083 0.06861,-0.0157 0.10341,-0.0231c0.02522,-0.0054 0.05044,-0.0108 0.07617,-0.0157c0.0353,-0.0064 0.07061,-0.0128 0.10643,-0.0182c0.02522,-0.0045 0.04994,-0.0084 0.07566,-0.0118c0.03682,-0.0055 0.07415,-0.0099 0.11198,-0.0143c0.02371,-0.0025 0.04792,-0.0059 0.07213,-0.0079c0.04136,-0.0039 0.08323,-0.0069 0.12513,-0.0093c0.0206,-0.0015 0.0408,-0.0035 0.0615,-0.004c0.0631,-0.0034 0.1256,-0.0049 0.1892,-0.0049c0.0635,0 0.1261,0.0015 0.1891,0.0049c0.0207,0.0005 0.0409,0.0025 0.0616,0.004c0.0418,0.0024 0.0837,0.0054 0.125,0.0093c0.0243,0.002 0.0485,0.0054 0.0722,0.0079c0.0378,0.0044 0.0751,0.0088 0.112,0.0143c0.0257,0.0034 0.0504,0.0073 0.0756,0.0118c0.0358,0.0054 0.0711,0.0118 0.1065,0.0182c0.0257,0.0049 0.0509,0.0103 0.0761,0.0157c0.0348,0.0074 0.0691,0.0148 0.1034,0.0231c0.0252,0.006 0.05,0.0123 0.0747,0.0187c0.0343,0.0089 0.0686,0.0187 0.1029,0.0286c0.0237,0.0069 0.0479,0.0138 0.0716,0.0211c0.0353,0.0109 0.0701,0.0227 0.1044,0.0345c0.0222,0.0079 0.0444,0.0148 0.0661,0.0226c0.0383,0.0143 0.0757,0.0291 0.1135,0.0438c0.0176,0.0074 0.0358,0.0138 0.0535,0.0212c0.0544,0.0226 0.1089,0.0467 0.1624,0.0718c0.0045,0.002 0.0086,0.004 0.0126,0.0064c0.0494,0.0232 0.0978,0.0473 0.1458,0.0729c0.0181,0.0093 0.0353,0.0192 0.0529,0.029c0.0338,0.0187 0.0681,0.0374 0.1014,0.0571c0.0202,0.0118 0.0399,0.0241 0.06,0.0364c0.0303,0.0182 0.0606,0.0369 0.0903,0.0566c0.0202,0.0133 0.0404,0.027 0.0611,0.0408c0.0282,0.0192 0.0565,0.0384 0.0842,0.0586c0.0202,0.0143 0.0404,0.029 0.06,0.0438c0.0273,0.0206 0.0545,0.0413 0.0807,0.062c0.0197,0.0152 0.0389,0.031 0.058,0.0467c0.0268,0.0217 0.053,0.0438 0.0787,0.0665c0.0182,0.0157 0.0368,0.0315 0.0545,0.0472c0.0267,0.0241 0.0525,0.0487 0.0787,0.0733c0.0161,0.0153 0.0328,0.0305 0.0489,0.0463c0.0283,0.028 0.0565,0.0571 0.0843,0.0861c0.0121,0.0128 0.0252,0.0256 0.0373,0.0389c0.0393,0.0423 0.0777,0.0856 0.1155,0.1299c0.005,0.0064 0.0101,0.0128 0.0151,0.0187c0.0318,0.0384 0.0636,0.0772 0.0938,0.1171c0.0127,0.0157 0.0243,0.032 0.0364,0.0482c0.0227,0.0305 0.0454,0.061 0.0671,0.092c0.0131,0.0187 0.0257,0.0384 0.0388,0.0576c0.0197,0.0291 0.0388,0.0581 0.0575,0.0876c0.0131,0.0207 0.0257,0.0413 0.0383,0.062c0.0177,0.0291 0.0353,0.0586 0.052,0.0881c0.0121,0.0217 0.0242,0.0433 0.0358,0.065c0.0166,0.0295 0.0323,0.06 0.0479,0.09c0.0111,0.0222 0.0217,0.0438 0.0328,0.066c0.0151,0.0314 0.0293,0.0629 0.0434,0.0944c0.0101,0.0217 0.0202,0.0433 0.0292,0.0655c0.0147,0.0334 0.0278,0.0674 0.0414,0.1014c0.0081,0.0206 0.0161,0.0413 0.0242,0.062c0.0146,0.0393 0.0278,0.0787 0.0409,0.1185c0.0055,0.0163 0.0116,0.032 0.0166,0.0483c0.0177,0.0561 0.0343,0.1132 0.05,0.1702c0.002,0.0089 0.004,0.0182 0.006,0.0271c0.0126,0.0487 0.0242,0.0974 0.0348,0.1466c0.0046,0.0197 0.0081,0.0399 0.0116,0.0601c0.0061,0.031 0.0126,0.0615 0.0182,0.093l10.8963,0l0,-18.28121c0,-0.33954 0.2825,-0.61511 0.6305,-0.61511l9.1163,0c0.0156,0 0.0636,0 0.0933,-0.05462c0.0298,-0.05413 0.0035,-0.09301 -0.0055,-0.10531l-1.9728,-2.88759c-0.1912,-0.27951 -0.5105,-0.44633 -0.855,-0.44633l-16.4645,0c-0.0918,0 -0.1781,0.03494 -0.2432,0.09842l-1.0431,1.01764c-0.3031,0.29575 -0.7062,0.45863 -1.1349,0.45863l-10.85803,0c-0.56293,0 -1.02094,0.44682 -1.02094,0.99599l0,15.78429z" id="Vector"/>
   <path fill="#101828" d="m8.20905,4.53015l3.9884,0c0.8056,0 1.4613,0.35122 1.4613,0.78329l0,7.23352c0,0.18654 -0.2824,0.33797 -0.6305,0.33797l-5.6494,0c-0.3481,0 -0.6305,-0.15143 -0.6305,-0.33797l0,-7.23352c-0.0005,-0.43207 0.6547,-0.78329 1.4607,-0.78329zm-0.2002,7.67884l4.3884,0l0,-3.97464l-4.3884,0l0,3.97464zm0,-4.65058l4.3884,0l0,-2.24497c0,-0.05921 -0.0898,-0.10734 -0.2003,-0.10734l-3.9884,0c-0.1104,0 -0.2002,0.04813 -0.2002,0.10734l0.0005,2.24497z" id="Vector_2" stroke="null"/>
   <line transform="rotate(2.19168 15.5905 14.5686)" fill="none" x1="26.71234" y1="14.23714" x2="4.46875" y2="14.90012" id="svg_1" stroke="#000000"/>
   <rect fill="#ffffff" x="-2.23403" y="19.24824" width="6.59574" height="5" id="svg_2" stroke="#000000"/>
   <rect fill="#ffffff" stroke="#ffffff" x="-2.55318" y="20.7376" width="6.06383" height="5" id="svg_3"/>
   <path stroke="null" fill="#101828" d="m29.82233,1.87955l1.48506,0c0.29996,0 0.54411,0.09291 0.54411,0.20721l0,1.91359c0,0.04935 -0.10515,0.08941 -0.23476,0.08941l-2.10353,0c-0.12961,0 -0.23476,-0.04006 -0.23476,-0.08941l0,-1.91359c-0.00019,-0.1143 0.24377,-0.20721 0.54388,-0.20721zm-0.07454,2.03139l1.634,0l0,-1.05147l-1.634,0l0,1.05147zm0,-1.23028l1.634,0l0,-0.59389c0,-0.01566 -0.03344,-0.0284 -0.07458,-0.0284l-1.48506,0c-0.04111,0 -0.07454,0.01273 -0.07454,0.0284l0.00019,0.59389z" id="svg_5"/>
  </g>
  <line stroke="#000000" id="svg_4" y2="19.10041" x2="4.45785" y1="13.9197" x1="4.45785" fill="none"/>
 </g>

</svg>