<?xml version="1.0" encoding="UTF-8"?>
<!DOCTYPE svg PUBLIC "-//W3C//DTD SVG 1.1//EN" "http://www.w3.org/Graphics/SVG/1.1/DTD/svg11.dtd">
<svg xmlns="http://www.w3.org/2000/svg" version="1.1" width="501px" height="351px" style="shape-rendering:geometricPrecision; text-rendering:geometricPrecision; image-rendering:optimizeQuality; fill-rule:evenodd; clip-rule:evenodd" xmlns:xlink="http://www.w3.org/1999/xlink">
<g><path style="opacity:0.768" fill="#031124" d="M 179.5,-0.5 C 259.167,-0.5 338.833,-0.5 418.5,-0.5C 430.806,15.67 442.639,32.3366 454,49.5C 456.538,58.9486 454.371,66.782 447.5,73C 445.884,73.6152 444.551,74.6152 443.5,76C 405.835,76.5 368.168,76.6667 330.5,76.5C 330.5,78.1667 330.5,79.8333 330.5,81.5C 351.169,81.3334 371.836,81.5 392.5,82C 397.018,83.6336 401.351,85.6336 405.5,88C 411.749,93.3768 416.916,99.5434 421,106.5C 423.35,112.375 425.517,118.375 427.5,124.5C 432.077,131.138 435.244,138.472 437,146.5C 440,151.329 442.667,156.329 445,161.5C 446.514,165.714 447.847,170.047 449,174.5C 450.887,176.886 453.387,178.053 456.5,178C 459.5,179.667 462.5,181.333 465.5,183C 467.5,183.333 469.5,183.667 471.5,184C 476.007,185.744 480.34,187.91 484.5,190.5C 490.525,195.191 495.858,200.525 500.5,206.5C 500.5,239.833 500.5,273.167 500.5,306.5C 497.081,308.389 493.748,310.556 490.5,313C 477.154,313.167 463.821,313.667 450.5,314.5C 451.52,316.432 451.687,318.432 451,320.5C 446.122,332.458 437.956,341.291 426.5,347C 425.177,347.816 424.511,348.983 424.5,350.5C 409.167,350.5 393.833,350.5 378.5,350.5C 378.489,348.983 377.823,347.816 376.5,347C 364.25,340.24 355.916,330.407 351.5,317.5C 351.68,316.446 352.013,315.446 352.5,314.5C 294.503,313.333 236.503,313.167 178.5,314C 175.785,328.782 167.452,339.782 153.5,347C 152.177,347.816 151.511,348.983 151.5,350.5C 136.167,350.5 120.833,350.5 105.5,350.5C 105.489,348.983 104.823,347.816 103.5,347C 91.3343,340.34 83.001,330.507 78.5,317.5C 78.6799,316.446 79.0133,315.446 79.5,314.5C 73.2015,313.504 66.8682,313.17 60.5,313.5C 60.1755,306.313 60.5088,299.313 61.5,292.5C 61.5,295.5 61.5,298.5 61.5,301.5C 66.5,301.5 71.5,301.5 76.5,301.5C 76.5,298.167 76.5,294.833 76.5,291.5C 77.7562,291.539 78.7562,291.039 79.5,290C 78.4829,288.951 78.3162,287.784 79,286.5C 81.2565,282.988 83.2565,279.321 85,275.5C 98.6543,258.204 116.488,250.704 138.5,253C 156.89,257.664 170.057,268.831 178,286.5C 178.034,288.18 178.201,289.68 178.5,291C 212.838,291.167 247.172,291.667 281.5,292.5C 281.709,293.086 282.043,293.586 282.5,294C 297.833,294.667 313.167,294.667 328.5,294C 335.979,291.91 343.646,290.91 351.5,291C 351.799,289.68 351.966,288.18 352,286.5C 364.167,261.658 384,250.491 411.5,253C 414.044,255.093 417.044,256.093 420.5,256C 431.412,260.901 440.245,268.401 447,278.5C 447.806,281.446 449.139,284.112 451,286.5C 451.034,288.18 451.201,289.68 451.5,291C 461.517,291.832 471.517,291.666 481.5,290.5C 480.221,281.18 480.221,271.846 481.5,262.5C 477.233,262.797 473.066,262.464 469,261.5C 468.207,255.115 468.374,248.782 469.5,242.5C 473.167,241.833 476.833,241.167 480.5,240.5C 480.709,239.914 481.043,239.414 481.5,239C 480.685,231.913 480.185,224.747 480,217.5C 478.428,214.178 476.261,211.344 473.5,209C 459.774,203.021 445.607,197.854 431,193.5C 429.779,192.728 428.779,191.728 428,190.5C 427.667,190.833 427.333,191.167 427,191.5C 425.182,184.517 420.682,180.517 413.5,179.5C 413.5,178.5 413.5,177.5 413.5,176.5C 417.506,175.778 421.506,174.945 425.5,174C 422.659,166.67 419.159,159.837 415,153.5C 409.37,139.99 404.036,126.323 399,112.5C 396.368,109.07 393.201,106.237 389.5,104C 369.167,103.333 348.833,103.333 328.5,104C 324.129,104.172 319.796,104.672 315.5,105.5C 314.332,107.217 312.665,107.884 310.5,107.5C 310.167,105.5 309.833,103.5 309.5,101.5C 314.167,101.5 318.833,101.5 323.5,101.5C 323.5,96.5 323.5,91.5 323.5,86.5C 318.833,86.5 314.167,86.5 309.5,86.5C 309.334,78.16 309.5,69.8267 310,61.5C 312.383,58.7272 315.217,56.5605 318.5,55C 355.838,54.8333 393.171,54.3333 430.5,53.5C 422.77,42.1521 414.77,30.9855 406.5,20C 405.167,19.6667 403.833,19.3333 402.5,19C 333.167,18.3333 263.833,18.3333 194.5,19C 188.263,23.2297 182.596,28.2297 177.5,34C 175.382,34.2602 173.716,35.2602 172.5,37C 123.167,37.3333 73.8333,37.6667 24.5,38C 23.2713,39.5292 21.7713,40.6959 20,41.5C 19.8315,107.404 19.3315,173.237 18.5,239C 18.9574,239.414 19.2907,239.914 19.5,240.5C 23.1667,241.167 26.8333,241.833 30.5,242.5C 31.1272,243.417 31.4606,244.417 31.5,245.5C 28.8333,245.5 26.1667,245.5 23.5,245.5C 23.5,250.5 23.5,255.5 23.5,260.5C 26.1667,260.5 28.8333,260.5 31.5,260.5C 31.3893,261.117 31.056,261.617 30.5,262C 20.172,262.5 9.83871,262.666 -0.5,262.5C -0.5,185.167 -0.5,107.833 -0.5,30.5C 2.93835,28.2311 5.93835,25.3978 8.5,22C 12.6491,19.6336 16.9824,17.6336 21.5,16C 69.8368,15.8333 118.17,15.3333 166.5,14.5C 170.5,10.5 174.5,6.5 178.5,2.5C 179.127,1.58317 179.461,0.583168 179.5,-0.5 Z M 309.5,86.5 C 302.5,86.5 295.5,86.5 288.5,86.5C 288.649,85.448 288.483,84.448 288,83.5C 285.679,84.3613 284.513,83.3613 284.5,80.5C 283.5,80.5 282.5,80.5 281.5,80.5C 281.5,82.5 281.5,84.5 281.5,86.5C 275.5,86.5 269.5,86.5 263.5,86.5C 263.002,83.5131 262.502,80.5131 262,77.5C 261.25,76.8742 260.416,76.3742 259.5,76C 246.65,75.444 233.983,75.944 221.5,77.5C 221.335,80.5184 221.502,83.5184 222,86.5C 222.197,88.8609 223.364,90.5276 225.5,91.5C 224.754,92.7362 224.421,94.0695 224.5,95.5C 232.439,95.0643 240.439,95.3976 248.5,96.5C 248.5,123.167 248.5,149.833 248.5,176.5C 186.5,176.5 124.5,176.5 62.5,176.5C 61.5877,199.484 61.2544,222.484 61.5,245.5C 51.5,245.5 41.5,245.5 31.5,245.5C 31.4606,244.417 31.1272,243.417 30.5,242.5C 26.8333,241.833 23.1667,241.167 19.5,240.5C 19.2907,239.914 18.9574,239.414 18.5,239C 19.3315,173.237 19.8315,107.404 20,41.5C 21.7713,40.6959 23.2713,39.5292 24.5,38C 73.8333,37.6667 123.167,37.3333 172.5,37C 173.716,35.2602 175.382,34.2602 177.5,34C 182.596,28.2297 188.263,23.2297 194.5,19C 263.833,18.3333 333.167,18.3333 402.5,19C 403.833,19.3333 405.167,19.6667 406.5,20C 414.77,30.9855 422.77,42.1521 430.5,53.5C 393.171,54.3333 355.838,54.8333 318.5,55C 315.217,56.5605 312.383,58.7272 310,61.5C 309.5,69.8267 309.334,78.16 309.5,86.5 Z M 224.5,80.5 C 226.344,81.2039 226.844,82.5372 226,84.5C 224.812,83.4366 224.312,82.1033 224.5,80.5 Z M 238.5,82.5 C 240.429,82.2308 242.095,82.7308 243.5,84C 242.667,84.1667 241.833,84.3333 241,84.5C 239.624,84.3158 238.791,83.6491 238.5,82.5 Z M 58.5,97.5 C 91.9797,97.0076 125.313,97.5076 158.5,99C 157.525,114.131 157.192,129.131 157.5,144C 124.502,144.5 91.5017,144.667 58.5,144.5C 58.5,128.833 58.5,113.167 58.5,97.5 Z M 310.5,130.5 C 310.099,135.808 310.599,141.141 312,146.5C 314.587,144.804 317.421,143.804 320.5,143.5C 320.5,141.5 320.5,139.5 320.5,137.5C 321.5,137.5 322.5,137.5 323.5,137.5C 323.5,136.5 323.5,135.5 323.5,134.5C 322.5,134.5 321.5,134.5 320.5,134.5C 320.5,133.167 320.5,131.833 320.5,130.5C 335.515,130.167 350.515,130.501 365.5,131.5C 372.122,146.406 378.455,161.406 384.5,176.5C 383.167,176.5 381.833,176.5 380.5,176.5C 380.5,177.5 380.5,178.5 380.5,179.5C 382.5,179.5 384.5,179.5 386.5,179.5C 387.067,181.03 387.733,182.53 388.5,184C 382.843,184.499 377.176,184.666 371.5,184.5C 370.5,181.833 369.5,181.833 368.5,184.5C 367.5,184.5 366.5,184.5 365.5,184.5C 365.179,182.952 364.179,182.285 362.5,182.5C 362.5,181.5 362.5,180.5 362.5,179.5C 361.5,179.5 360.5,179.5 359.5,179.5C 359.5,181.167 359.5,182.833 359.5,184.5C 346.5,184.5 333.5,184.5 320.5,184.5C 320.5,182.833 320.5,181.167 320.5,179.5C 321.5,179.5 322.5,179.5 323.5,179.5C 323.5,178.5 323.5,177.5 323.5,176.5C 322.5,176.5 321.5,176.5 320.5,176.5C 316.833,176.5 313.167,176.5 309.5,176.5C 309.477,178.6 310.144,180.433 311.5,182C 311.355,182.772 311.022,183.439 310.5,184C 305.511,184.499 300.511,184.666 295.5,184.5C 296.623,166.483 296.623,148.483 295.5,130.5C 300.5,130.5 305.5,130.5 310.5,130.5 Z M 314.5,131.5 C 318.3,131.819 318.466,132.819 315,134.5C 314.517,133.552 314.351,132.552 314.5,131.5 Z M 121.5,274.5 C 126.179,274.334 130.845,274.501 135.5,275C 137.808,276.867 140.475,277.867 143.5,278C 156.558,287.279 160.558,299.779 155.5,315.5C 146.452,330.273 133.452,335.107 116.5,330C 100.078,319.541 95.9114,305.374 104,287.5C 107.678,281.826 112.845,278.326 119.5,277C 120.381,276.292 121.047,275.458 121.5,274.5 Z M 394.5,274.5 C 421.374,273.875 432.874,286.875 429,313.5C 423.778,325.618 414.612,331.618 401.5,331.5C 383.81,330.311 374.143,320.811 372.5,303C 373.21,289.515 379.877,280.849 392.5,277C 393.381,276.292 394.047,275.458 394.5,274.5 Z"/></g>
<g><path style="opacity:0.727" fill="#031124" d="M 52.5,75.5 C 89.8348,75.3333 127.168,75.5 164.5,76C 166.026,77.8871 168.026,78.8871 170.5,79C 175.599,82.9024 178.765,88.069 180,94.5C 180.667,112.167 180.667,129.833 180,147.5C 177.225,156.607 171.392,162.774 162.5,166C 126.167,166.667 89.8333,166.667 53.5,166C 51.9739,164.113 49.9739,163.113 47.5,163C 42.8694,159.709 39.3694,155.543 37,150.5C 36.3333,130.833 36.3333,111.167 37,91.5C 38.7519,88.328 40.7519,85.328 43,82.5C 45.9922,79.8415 49.1589,77.5081 52.5,75.5 Z M 58.5,97.5 C 58.5,113.167 58.5,128.833 58.5,144.5C 91.5017,144.667 124.502,144.5 157.5,144C 157.192,129.131 157.525,114.131 158.5,99C 125.313,97.5076 91.9797,97.0076 58.5,97.5 Z"/></g>
<g><path style="opacity:0.022" fill="#031124" d="M 263.5,86.5 C 262.5,86.5 261.5,86.5 260.5,86.5C 259.5,85.1667 258.5,85.1667 257.5,86.5C 254.5,86.5 251.5,86.5 248.5,86.5C 248.5,89.8333 248.5,93.1667 248.5,96.5C 240.439,95.3976 232.439,95.0643 224.5,95.5C 224.421,94.0695 224.754,92.7362 225.5,91.5C 223.364,90.5276 222.197,88.8609 222,86.5C 221.502,83.5184 221.335,80.5184 221.5,77.5C 233.983,75.944 246.65,75.444 259.5,76C 260.416,76.3742 261.25,76.8742 262,77.5C 262.502,80.5131 263.002,83.5131 263.5,86.5 Z M 224.5,80.5 C 224.312,82.1033 224.812,83.4366 226,84.5C 226.844,82.5372 226.344,81.2039 224.5,80.5 Z M 238.5,82.5 C 238.791,83.6491 239.624,84.3158 241,84.5C 241.833,84.3333 242.667,84.1667 243.5,84C 242.095,82.7308 240.429,82.2308 238.5,82.5 Z"/></g>
<g><path style="opacity:0.006" fill="#031124" d="M 288.5,86.5 C 286.167,86.5 283.833,86.5 281.5,86.5C 281.5,84.5 281.5,82.5 281.5,80.5C 282.5,80.5 283.5,80.5 284.5,80.5C 284.513,83.3613 285.679,84.3613 288,83.5C 288.483,84.448 288.649,85.448 288.5,86.5 Z"/></g>
<g><path style="opacity:0.004" fill="#031124" d="M 215.5,86.5 C 216.5,86.5 217.5,86.5 218.5,86.5C 218.5,87.5 218.5,88.5 218.5,89.5C 217.5,89.5 216.5,89.5 215.5,89.5C 215.5,88.5 215.5,87.5 215.5,86.5 Z"/></g>
<g><path style="opacity:0.984" fill="#000000" d="M 257.5,86.5 C 258.5,86.5 259.5,86.5 260.5,86.5C 261.5,86.5 262.5,86.5 263.5,86.5C 269.5,86.5 275.5,86.5 281.5,86.5C 283.833,86.5 286.167,86.5 288.5,86.5C 295.5,86.5 302.5,86.5 309.5,86.5C 314.167,86.5 318.833,86.5 323.5,86.5C 323.5,91.5 323.5,96.5 323.5,101.5C 318.833,101.5 314.167,101.5 309.5,101.5C 303.5,101.5 297.5,101.5 291.5,101.5C 289.833,101.5 288.167,101.5 286.5,101.5C 281.833,101.5 277.167,101.5 272.5,101.5C 271.5,101.5 270.5,101.5 269.5,101.5C 267.5,101.5 265.5,101.5 263.5,101.5C 263.5,119.833 263.5,138.167 263.5,156.5C 263.5,159.5 263.5,162.5 263.5,165.5C 264.68,175.123 265.347,184.79 265.5,194.5C 202.5,194.5 139.5,194.5 76.5,194.5C 77.1018,226.846 77.1018,259.179 76.5,291.5C 76.5,294.833 76.5,298.167 76.5,301.5C 71.5,301.5 66.5,301.5 61.5,301.5C 61.5,298.5 61.5,295.5 61.5,292.5C 61.5,281.833 61.5,271.167 61.5,260.5C 51.5,260.5 41.5,260.5 31.5,260.5C 28.8333,260.5 26.1667,260.5 23.5,260.5C 23.5,255.5 23.5,250.5 23.5,245.5C 26.1667,245.5 28.8333,245.5 31.5,245.5C 41.5,245.5 51.5,245.5 61.5,245.5C 61.2544,222.484 61.5877,199.484 62.5,176.5C 124.5,176.5 186.5,176.5 248.5,176.5C 248.5,149.833 248.5,123.167 248.5,96.5C 248.5,93.1667 248.5,89.8333 248.5,86.5C 251.5,86.5 254.5,86.5 257.5,86.5 Z"/></g>
<g><path style="opacity:0.027" fill="#031124" d="M 209.5,97.5 C 211.877,97.7845 214.044,97.7845 216,97.5C 217.471,98.3805 218.304,99.7139 218.5,101.5C 219.75,112.499 219.75,123.499 218.5,134.5C 217.5,134.5 216.5,134.5 215.5,134.5C 215.728,132.645 215.061,131.812 213.5,132C 212.594,133.699 212.261,135.533 212.5,137.5C 211.5,137.5 210.5,137.5 209.5,137.5C 208.419,130.011 207.419,122.511 206.5,115C 206.78,109.009 207.78,103.176 209.5,97.5 Z"/></g>
<g><path style="opacity:0.004" fill="#031124" d="M 203.5,98.5 C 204.5,98.5 205.5,98.5 206.5,98.5C 206.5,99.5 206.5,100.5 206.5,101.5C 205.5,101.5 204.5,101.5 203.5,101.5C 203.5,100.5 203.5,99.5 203.5,98.5 Z"/></g>
<g><path style="opacity:0.005" fill="#031124" d="M 269.5,101.5 C 270.5,101.5 271.5,101.5 272.5,101.5C 272.5,102.5 272.5,103.5 272.5,104.5C 273.5,104.5 274.5,104.5 275.5,104.5C 275.84,107.144 275.173,109.477 273.5,111.5C 276.846,116.692 277.513,122.358 275.5,128.5C 273.5,128.5 271.5,128.5 269.5,128.5C 268.167,119.5 268.167,110.5 269.5,101.5 Z"/></g>
<g><path style="opacity:0.005" fill="#031124" d="M 286.5,101.5 C 288.167,101.5 289.833,101.5 291.5,101.5C 291.002,106.152 290.669,110.819 290.5,115.5C 289.5,115.5 288.5,115.5 287.5,115.5C 288.186,111.679 287.186,108.512 284.5,106C 285.707,104.7 286.374,103.2 286.5,101.5 Z"/></g>
<g><path style="opacity:0.967" fill="#000000" d="M 287.5,115.5 C 288.5,115.5 289.5,115.5 290.5,115.5C 318.175,115.167 345.841,115.5 373.5,116.5C 374.376,117.251 375.376,117.751 376.5,118C 387.375,141.418 397.708,165.084 407.5,189C 402.264,194.37 396.264,195.87 389.5,193.5C 385.487,194.829 381.487,194.829 377.5,193.5C 372.5,193.5 367.5,193.5 362.5,193.5C 340.147,193.898 317.813,193.898 295.5,193.5C 295.5,218.5 295.5,243.5 295.5,268.5C 290.5,268.5 285.5,268.5 280.5,268.5C 280.5,217.5 280.5,166.5 280.5,115.5C 282.833,115.5 285.167,115.5 287.5,115.5 Z M 310.5,130.5 C 310.099,135.808 310.599,141.141 312,146.5C 314.587,144.804 317.421,143.804 320.5,143.5C 320.5,141.5 320.5,139.5 320.5,137.5C 321.5,137.5 322.5,137.5 323.5,137.5C 323.5,136.5 323.5,135.5 323.5,134.5C 322.5,134.5 321.5,134.5 320.5,134.5C 320.5,133.167 320.5,131.833 320.5,130.5C 335.515,130.167 350.515,130.501 365.5,131.5C 372.122,146.406 378.455,161.406 384.5,176.5C 383.167,176.5 381.833,176.5 380.5,176.5C 380.5,177.5 380.5,178.5 380.5,179.5C 382.5,179.5 384.5,179.5 386.5,179.5C 387.067,181.03 387.733,182.53 388.5,184C 382.843,184.499 377.176,184.666 371.5,184.5C 370.5,181.833 369.5,181.833 368.5,184.5C 367.5,184.5 366.5,184.5 365.5,184.5C 365.179,182.952 364.179,182.285 362.5,182.5C 362.5,181.5 362.5,180.5 362.5,179.5C 361.5,179.5 360.5,179.5 359.5,179.5C 359.5,181.167 359.5,182.833 359.5,184.5C 346.5,184.5 333.5,184.5 320.5,184.5C 320.5,182.833 320.5,181.167 320.5,179.5C 321.5,179.5 322.5,179.5 323.5,179.5C 323.5,178.5 323.5,177.5 323.5,176.5C 322.5,176.5 321.5,176.5 320.5,176.5C 316.833,176.5 313.167,176.5 309.5,176.5C 309.477,178.6 310.144,180.433 311.5,182C 311.355,182.772 311.022,183.439 310.5,184C 305.511,184.499 300.511,184.666 295.5,184.5C 296.623,166.483 296.623,148.483 295.5,130.5C 300.5,130.5 305.5,130.5 310.5,130.5 Z M 314.5,131.5 C 314.351,132.552 314.517,133.552 315,134.5C 318.466,132.819 318.3,131.819 314.5,131.5 Z"/></g>
<g><path style="opacity:0.007" fill="#031124" d="M 310.5,130.5 C 313.833,130.5 317.167,130.5 320.5,130.5C 320.5,131.833 320.5,133.167 320.5,134.5C 321.5,134.5 322.5,134.5 323.5,134.5C 323.5,135.5 323.5,136.5 323.5,137.5C 322.5,137.5 321.5,137.5 320.5,137.5C 320.5,139.5 320.5,141.5 320.5,143.5C 317.421,143.804 314.587,144.804 312,146.5C 310.599,141.141 310.099,135.808 310.5,130.5 Z M 314.5,131.5 C 314.351,132.552 314.517,133.552 315,134.5C 318.466,132.819 318.3,131.819 314.5,131.5 Z"/></g>
<g><path style="opacity:0.004" fill="#031124" d="M 200.5,143.5 C 201.5,143.5 202.5,143.5 203.5,143.5C 203.5,144.5 203.5,145.5 203.5,146.5C 202.5,146.5 201.5,146.5 200.5,146.5C 200.5,145.5 200.5,144.5 200.5,143.5 Z"/></g>
<g><path style="opacity:0.004" fill="#031124" d="M 323.5,143.5 C 324.5,143.5 325.5,143.5 326.5,143.5C 326.5,144.5 326.5,145.5 326.5,146.5C 325.5,146.5 324.5,146.5 323.5,146.5C 323.5,145.5 323.5,144.5 323.5,143.5 Z"/></g>
<g><path style="opacity:0.004" fill="#031124" d="M 230.5,149.5 C 229.5,149.5 228.5,149.5 227.5,149.5C 227.5,148.5 227.5,147.5 227.5,146.5C 228.5,146.5 229.5,146.5 230.5,146.5C 230.5,147.5 230.5,148.5 230.5,149.5 Z"/></g>
<g><path style="opacity:0.004" fill="#031124" d="M 236.5,146.5 C 237.5,146.5 238.5,146.5 239.5,146.5C 239.5,147.5 239.5,148.5 239.5,149.5C 238.5,149.5 237.5,149.5 236.5,149.5C 236.5,148.5 236.5,147.5 236.5,146.5 Z"/></g>
<g><path style="opacity:0.004" fill="#031124" d="M 230.5,149.5 C 231.5,149.5 232.5,149.5 233.5,149.5C 233.5,150.5 233.5,151.5 233.5,152.5C 232.5,152.5 231.5,152.5 230.5,152.5C 230.5,151.5 230.5,150.5 230.5,149.5 Z"/></g>
<g><path style="opacity:0.004" fill="#031124" d="M 236.5,155.5 C 237.5,155.5 238.5,155.5 239.5,155.5C 239.5,156.5 239.5,157.5 239.5,158.5C 238.5,158.5 237.5,158.5 236.5,158.5C 236.5,157.5 236.5,156.5 236.5,155.5 Z"/></g>
<g><path style="opacity:0.009" fill="#031124" d="M 263.5,156.5 C 266.332,158.407 267.166,161.073 266,164.5C 265.329,165.252 264.496,165.586 263.5,165.5C 263.5,162.5 263.5,159.5 263.5,156.5 Z"/></g>
<g><path style="opacity:0.004" fill="#031124" d="M 328.5,175.5 C 332.019,175.187 333.353,176.52 332.5,179.5C 330.021,180.952 328.021,180.452 326.5,178C 327.056,176.989 327.722,176.156 328.5,175.5 Z"/></g>
<g><path style="opacity:0.005" fill="#031124" d="M 353.5,179.5 C 349.516,180.743 345.516,180.743 341.5,179.5C 341.5,178.5 341.5,177.5 341.5,176.5C 344.799,175.624 348.132,175.457 351.5,176C 352.973,176.71 353.64,177.876 353.5,179.5 Z"/></g>
<g><path style="opacity:0.004" fill="#031124" d="M 320.5,176.5 C 321.5,176.5 322.5,176.5 323.5,176.5C 323.5,177.5 323.5,178.5 323.5,179.5C 322.5,179.5 321.5,179.5 320.5,179.5C 320.5,178.5 320.5,177.5 320.5,176.5 Z"/></g>
<g><path style="opacity:0.004" fill="#031124" d="M 362.5,179.5 C 362.5,178.5 362.5,177.5 362.5,176.5C 364.5,176.5 366.5,176.5 368.5,176.5C 368.5,177.5 368.5,178.5 368.5,179.5C 366.5,179.5 364.5,179.5 362.5,179.5 Z"/></g>
<g><path style="opacity:0.004" fill="#031124" d="M 374.5,179.5 C 373.5,179.5 372.5,179.5 371.5,179.5C 371.5,178.5 371.5,177.5 371.5,176.5C 372.5,176.5 373.5,176.5 374.5,176.5C 374.5,177.5 374.5,178.5 374.5,179.5 Z"/></g>
<g><path style="opacity:0.004" fill="#031124" d="M 384.5,176.5 C 385.401,177.29 386.068,178.29 386.5,179.5C 384.5,179.5 382.5,179.5 380.5,179.5C 380.5,178.5 380.5,177.5 380.5,176.5C 381.833,176.5 383.167,176.5 384.5,176.5 Z"/></g>
<g><path style="opacity:0.004" fill="#031124" d="M 404.5,176.5 C 405.5,176.5 406.5,176.5 407.5,176.5C 407.5,177.5 407.5,178.5 407.5,179.5C 406.5,179.5 405.5,179.5 404.5,179.5C 404.5,178.5 404.5,177.5 404.5,176.5 Z"/></g>
<g><path style="opacity:0.004" fill="#031124" d="M 353.5,179.5 C 354.5,179.5 355.5,179.5 356.5,179.5C 356.5,180.5 356.5,181.5 356.5,182.5C 355.5,182.5 354.5,182.5 353.5,182.5C 353.5,181.5 353.5,180.5 353.5,179.5 Z"/></g>
<g><path style="opacity:0.004" fill="#031124" d="M 362.5,179.5 C 362.5,180.5 362.5,181.5 362.5,182.5C 364.179,182.285 365.179,182.952 365.5,184.5C 363.5,184.5 361.5,184.5 359.5,184.5C 359.5,182.833 359.5,181.167 359.5,179.5C 360.5,179.5 361.5,179.5 362.5,179.5 Z"/></g>
<g><path style="opacity:0.004" fill="#031124" d="M 374.5,179.5 C 375.5,179.5 376.5,179.5 377.5,179.5C 377.5,180.5 377.5,181.5 377.5,182.5C 376.5,182.5 375.5,182.5 374.5,182.5C 374.5,181.5 374.5,180.5 374.5,179.5 Z"/></g>
<g><path style="opacity:0.004" fill="#031124" d="M 371.5,184.5 C 370.5,184.5 369.5,184.5 368.5,184.5C 369.5,181.833 370.5,181.833 371.5,184.5 Z"/></g>
<g><path style="opacity:0.005" fill="#031124" d="M 362.5,193.5 C 367.5,193.5 372.5,193.5 377.5,193.5C 374.737,194.655 371.737,195.322 368.5,195.5C 366.117,195.639 364.117,194.972 362.5,193.5 Z"/></g>
<g><path style="opacity:0.033" fill="#031124" d="M 200.5,203.5 C 201.5,203.5 202.5,203.5 203.5,203.5C 204.53,209.688 206.197,215.688 208.5,221.5C 206.934,228.755 205.767,236.089 205,243.5C 204,244.167 203,244.833 202,245.5C 201.333,244.167 200.667,244.167 200,245.5C 197.895,231.46 198.062,217.46 200.5,203.5 Z"/></g>
<g><path style="opacity:1" fill="#000000" d="M 320.5,214.5 C 318.167,214.5 315.833,214.5 313.5,214.5C 313.5,212.833 313.5,211.167 313.5,209.5C 319.31,208.51 325.31,208.177 331.5,208.5C 331.5,210.5 331.5,212.5 331.5,214.5C 327.833,214.5 324.167,214.5 320.5,214.5 Z"/></g>
<g><path style="opacity:0.004" fill="#031124" d="M 313.5,209.5 C 313.5,211.167 313.5,212.833 313.5,214.5C 315.833,214.5 318.167,214.5 320.5,214.5C 317.713,215.477 314.713,215.81 311.5,215.5C 311.025,212.918 311.692,210.918 313.5,209.5 Z"/></g>
<g><path style="opacity:0.017" fill="#031124" d="M 327.5,239.5 C 329.113,239.944 330.28,240.944 331,242.5C 331.329,249.04 330.829,255.54 329.5,262C 329.85,267.546 330.517,273.046 331.5,278.5C 331.862,282.586 330.862,286.253 328.5,289.5C 328.709,290.086 329.043,290.586 329.5,291C 328.207,291.49 326.873,291.657 325.5,291.5C 325.66,289.801 325.494,288.134 325,286.5C 323.644,287.38 322.144,287.714 320.5,287.5C 320.338,285.473 320.505,283.473 321,281.5C 326.173,273.257 327.84,264.257 326,254.5C 319.916,248.974 320.416,243.974 327.5,239.5 Z"/></g>
<g><path style="opacity:0.021" fill="#031124" d="M 226.5,249.5 C 236.247,249.08 245.914,249.58 255.5,251C 256.022,251.561 256.355,252.228 256.5,253C 255.043,256.175 254.043,259.509 253.5,263C 254.988,264.717 256.821,265.884 259,266.5C 259.684,267.784 259.517,268.951 258.5,270C 253.833,272 249.167,272 244.5,270C 242.983,267.239 243.816,265.406 247,264.5C 247.896,261.208 246.729,258.875 243.5,257.5C 241.477,259.173 239.144,259.84 236.5,259.5C 236.026,263.267 237.359,266.101 240.5,268C 237.949,270.648 234.949,271.148 231.5,269.5C 231.167,269 230.833,268.5 230.5,268C 233.38,266.103 234.047,263.603 232.5,260.5C 227.813,259.671 224.48,257.171 222.5,253C 223.347,251.229 224.68,250.063 226.5,249.5 Z"/></g>
<g><path style="opacity:0.033" fill="#031124" d="M 201.5,260.5 C 208.836,263.504 216.503,265.504 224.5,266.5C 224.5,267.5 224.5,268.5 224.5,269.5C 219.572,270.584 214.572,271.25 209.5,271.5C 207.167,271.167 204.833,270.833 202.5,270.5C 200.959,268.796 199.625,266.963 198.5,265C 198.957,263.06 199.957,261.56 201.5,260.5 Z"/></g>
<g><path style="opacity:0.004" fill="#031124" d="M 263.5,266.5 C 266.5,266.5 269.5,266.5 272.5,266.5C 272.5,267.5 272.5,268.5 272.5,269.5C 269.5,269.5 266.5,269.5 263.5,269.5C 263.5,268.5 263.5,267.5 263.5,266.5 Z"/></g>
<g><path style="opacity:0.004" fill="#031124" d="M 311.5,275.5 C 312.5,275.5 313.5,275.5 314.5,275.5C 314.5,277.5 314.5,279.5 314.5,281.5C 313.5,281.5 312.5,281.5 311.5,281.5C 311.5,279.5 311.5,277.5 311.5,275.5 Z"/></g>
<g><path style="opacity:0.023" fill="#031124" d="M -0.5,307.5 C -0.5,297.833 -0.5,288.167 -0.5,278.5C 0.822066,278.67 1.98873,278.337 3,277.5C 8.02048,278.146 12.8538,279.479 17.5,281.5C 17.5,283.5 17.5,285.5 17.5,287.5C 15.8561,287.286 14.3561,287.62 13,288.5C 13.4866,290.044 13.9866,291.71 14.5,293.5C 11.9339,293.344 9.43391,293.678 7,294.5C 6.04973,293.978 5.2164,293.311 4.5,292.5C 3.96409,295.816 4.96409,298.816 7.5,301.5C 8.68884,302.429 10.0222,302.762 11.5,302.5C 11.2865,304.144 11.6198,305.644 12.5,307C 14.74,307.977 17.0733,308.477 19.5,308.5C 19.5,309.5 19.5,310.5 19.5,311.5C 15.5392,312.548 11.5392,313.048 7.5,313C 4.67584,311.249 2.00918,309.416 -0.5,307.5 Z"/></g>
<g><path style="opacity:0.025" fill="#031124" d="M 43.5,291.5 C 47.5138,291.334 51.5138,291.501 55.5,292C 56.5784,292.674 57.2451,293.674 57.5,295C 55.8104,300.194 52.4771,304.028 47.5,306.5C 45.3622,305.571 44.1955,303.904 44,301.5C 43.0083,303.665 41.8417,303.499 40.5,301C 41.9988,298.73 41.6654,296.73 39.5,295C 40.6856,293.588 42.019,292.421 43.5,291.5 Z"/></g>
<g><path style="opacity:0.004" fill="#031124" d="M 17.5,296.5 C 18.5,296.5 19.5,296.5 20.5,296.5C 20.5,297.5 20.5,298.5 20.5,299.5C 19.5,299.5 18.5,299.5 17.5,299.5C 17.5,298.5 17.5,297.5 17.5,296.5 Z"/></g>
<g><path style="opacity:0.018" fill="#031124" d="M 26.5,299.5 C 27.5,299.5 28.5,299.5 29.5,299.5C 29.5,300.833 29.5,302.167 29.5,303.5C 30.5,303.5 31.5,303.5 32.5,303.5C 32.5,302.167 32.5,300.833 32.5,299.5C 33.5,299.5 34.5,299.5 35.5,299.5C 35.7394,301.467 35.4061,303.301 34.5,305C 35.7287,306.529 37.2287,307.696 39,308.5C 39.6838,309.784 39.5171,310.951 38.5,312C 34.2891,313.534 29.9558,313.867 25.5,313C 23.9632,311.89 23.2965,310.39 23.5,308.5C 22.5,308.5 21.5,308.5 20.5,308.5C 21.6219,304.817 23.6219,301.817 26.5,299.5 Z"/></g>
</svg>
